  0
SECTION
  2
HEADER
  9
$ACADVER
  1
AC1009
  9
$EXTMIN
 10
1244720.68
 20
408966.89
 30
0.0
  9
$EXTMAX
 10
1245159.62
 20
411034.81
 30
0.0
  9
$LIMMIN
 10
1244720.68
 20
408966.89
  9
$LIMMAX
 10
1245159.62
 20
411034.81
  0
ENDSEC
  0
SECTION
  2
TABLES
  0
TABLE
  2
VPORT
  5
8
100
AcDbSymbolTable
 70
     3
  0
VPORT
  5
15C09
100
AcDbSymbolTableRecord
100
AcDbViewportTableRecord
  2
*Active
 70
     0
 10
0
 20
0
 11
1
 21
1
 12
1244940.15
 22
410000.85
 13
0.0
 23
0.0
 14
1.0
 24
1.0
 15
10
 25
10
 16
0.0
 26
0.0
 36
1.0
 17
0.0
 27
0.0
 37
0.0
 40
2067.92
 41
0.2122616
 42
0
 43
0.0
 44
0.0
 50
0.0
 51
0.0
 71
     0
 72
   100
 73
     1
 74
     1
 75
     0
 76
     1
 77
     0
 78
     0
  0
ENDTAB
  0
TABLE
  2
LTYPE
 70
     1
  0
LTYPE
  2
CONTINUOUS
 70
     0
  3
Solid Line
 72
    65
 73
     0
 40
0.0
  0
ENDTAB
  0
ENDSEC
  0
SECTION
  2
BLOCKS
  0
BLOCK
  8
p
 62
     7
  2
p1
 70
    66
 10
0.0
 20
0.0
 30
0.0
  0
POLYLINE
  8
p
  6
CONTINUOUS
 62
     7
 70
     1
 75
     5
 66
     1
  0
VERTEX
  8
p
 10
1245001.14
 20
410950.01
 30
0.0
  0
VERTEX
  8
p
 10
1245004.54
 20
410784.02
 30
0.0
  0
VERTEX
  8
p
 10
1245014.93
 20
410451.47
 30
0.0
  0
VERTEX
  8
p
 10
1244996.04
 20
410451.09
 30
0.0
  0
VERTEX
  8
p
 10
1244961.13
 20
409999.12
 30
0.0
  0
VERTEX
  8
p
 10
1244867.97
 20
410007.03
 30
0.0
  0
VERTEX
  8
p
 10
1244844.06
 20
410009.06
 30
0.0
  0
VERTEX
  8
p
 10
1244749.06
 20
410017.37
 30
0.0
  0
VERTEX
  8
p
 10
1244767.24
 20
410256.51
 30
0.0
  0
VERTEX
  8
p
 10
1244790.23
 20
410399.45
 30
0.0
  0
VERTEX
  8
p
 10
1244807.36
 20
410581.39
 30
0.0
  0
VERTEX
  8
p
 10
1244869.89
 20
410982.07
 30
0.0
  0
VERTEX
  8
p
 10
1244924.03
 20
410968.86
 30
0.0
  0
VERTEX
  8
p
 10
1244950.47
 20
410962.38
 30
0.0
  0
SEQEND
  0
TEXT
  8
Points
 10
1245001.14
 20
410950.01
 30
0.0
 40
1.0
  1
1
  0
TEXT
  8
Points
 10
1245004.54
 20
410784.02
 30
0.0
 40
1.0
  1
2
  0
TEXT
  8
Points
 10
1245014.93
 20
410451.47
 30
0.0
 40
1.0
  1
3
  0
TEXT
  8
Points
 10
1244996.04
 20
410451.09
 30
0.0
 40
1.0
  1
4
  0
TEXT
  8
Points
 10
1244961.13
 20
409999.12
 30
0.0
 40
1.0
  1
5
  0
TEXT
  8
Points
 10
1244867.97
 20
410007.03
 30
0.0
 40
1.0
  1
6
  0
TEXT
  8
Points
 10
1244844.06
 20
410009.06
 30
0.0
 40
1.0
  1
7
  0
TEXT
  8
Points
 10
1244749.06
 20
410017.37
 30
0.0
 40
1.0
  1
8
  0
TEXT
  8
Points
 10
1244767.24
 20
410256.51
 30
0.0
 40
1.0
  1
9
  0
TEXT
  8
Points
 10
1244790.23
 20
410399.45
 30
0.0
 40
1.0
  1
10
  0
TEXT
  8
Points
 10
1244807.36
 20
410581.39
 30
0.0
 40
1.0
  1
11
  0
TEXT
  8
Points
 10
1244869.89
 20
410982.07
 30
0.0
 40
1.0
  1
12
  0
TEXT
  8
Points
 10
1244924.03
 20
410968.86
 30
0.0
 40
1.0
  1
13
  0
TEXT
  8
Points
 10
1244950.47
 20
410962.38
 30
0.0
 40
1.0
  1
14
  0
POLYLINE
  8
p
  6
CONTINUOUS
 62
     7
 70
     1
 75
     5
 66
     1
  0
VERTEX
  8
p
 10
1244871.78
 20
410569.77
 30
0.0
  0
VERTEX
  8
p
 10
1244862.05
 20
410570.73
 30
0.0
  0
VERTEX
  8
p
 10
1244861.2
 20
410562.98
 30
0.0
  0
VERTEX
  8
p
 10
1244870.93
 20
410562.02
 30
0.0
  0
SEQEND
  0
TEXT
  8
Points
 10
1244871.78
 20
410569.77
 30
0.0
 40
1.0
  1
1
  0
TEXT
  8
Points
 10
1244862.05
 20
410570.73
 30
0.0
 40
1.0
  1
2
  0
TEXT
  8
Points
 10
1244861.2
 20
410562.98
 30
0.0
 40
1.0
  1
3
  0
TEXT
  8
Points
 10
1244870.93
 20
410562.02
 30
0.0
 40
1.0
  1
4
  0
POLYLINE
  8
p
  6
CONTINUOUS
 62
     7
 70
     1
 75
     5
 66
     1
  0
VERTEX
  8
p
 10
1244900.42
 20
410872.12
 30
0.0
  0
VERTEX
  8
p
 10
1244890.43
 20
410873.17
 30
0.0
  0
VERTEX
  8
p
 10
1244889.6
 20
410865.65
 30
0.0
  0
VERTEX
  8
p
 10
1244899.59
 20
410864.6
 30
0.0
  0
SEQEND
  0
TEXT
  8
Points
 10
1244900.42
 20
410872.12
 30
0.0
 40
1.0
  1
1
  0
TEXT
  8
Points
 10
1244890.43
 20
410873.17
 30
0.0
 40
1.0
  1
2
  0
TEXT
  8
Points
 10
1244889.6
 20
410865.65
 30
0.0
 40
1.0
  1
3
  0
TEXT
  8
Points
 10
1244899.59
 20
410864.6
 30
0.0
 40
1.0
  1
4
  0
POLYLINE
  8
p
  6
CONTINUOUS
 62
     7
 70
     1
 75
     5
 66
     1
  0
VERTEX
  8
p
 10
1244845.68
 20
410295.32
 30
0.0
  0
VERTEX
  8
p
 10
1244835.86
 20
410296.33
 30
0.0
  0
VERTEX
  8
p
 10
1244835.19
 20
410288.86
 30
0.0
  0
VERTEX
  8
p
 10
1244845.02
 20
410287.85
 30
0.0
  0
SEQEND
  0
TEXT
  8
Points
 10
1244845.68
 20
410295.32
 30
0.0
 40
1.0
  1
1
  0
TEXT
  8
Points
 10
1244835.86
 20
410296.33
 30
0.0
 40
1.0
  1
2
  0
TEXT
  8
Points
 10
1244835.19
 20
410288.86
 30
0.0
 40
1.0
  1
3
  0
TEXT
  8
Points
 10
1244845.02
 20
410287.85
 30
0.0
 40
1.0
  1
4
  0
TEXT
  8
Labels
 10
1244881.995
 20
410490.595
 30
0.0
 11
1244881.995
 21
410490.595
 31
0.0
 40
1.0
 72
1
 73
2
  1
21:02:010103:1
  0
ATTDEF
  8
p
 10
0.0
 20
0.0
 30
0.0
 40
0.2
  1

  3

  2
Кадастровый номер, обозначение, учетный номер объекта
 70
     1
  0
ATTDEF
  8
p
 10
0.0
 20
0.0
 30
0.0
 40
0.2
  1

  3

  2
Тип объекта
 70
     1
  0
ATTDEF
  8
p
 10
0.0
 20
0.0
 30
0.0
 40
0.2
  1

  3

  2
Площадь, кв.м
 70
     1
  0
ATTDEF
  8
p
 10
0.0
 20
0.0
 30
0.0
 40
0.2
  1

  3

  2
Кадастровый номер квартала
 70
     1
  0
ATTDEF
  8
p
 10
0.0
 20
0.0
 30
0.0
 40
0.2
  1

  3

  2
Адрес (местоположение) участка
 70
     1
  0
ATTDEF
  8
p
 10
0.0
 20
0.0
 30
0.0
 40
0.2
  1

  3

  2
Категория земель
 70
     1
  0
ATTDEF
  8
p
 10
0.0
 20
0.0
 30
0.0
 40
0.2
  1

  3

  2
Вид разрешенного использования по классификатору
 70
     1
  0
ATTDEF
  8
p
 10
0.0
 20
0.0
 30
0.0
 40
0.2
  1

  3

  2
Вид использования по документу
 70
     1
  0
ATTDEF
  8
p
 10
0.0
 20
0.0
 30
0.0
 40
0.2
  1

  3

  2
Кадастровая стоимость
 70
     1
  0
ATTDEF
  8
p
 10
0.0
 20
0.0
 30
0.0
 40
0.2
  1

  3

  2
Статус записи о ЗУ по справочнику
 70
     1
  0
ATTDEF
  8
p
 10
0.0
 20
0.0
 30
0.0
 40
0.2
  1

  3

  2
Дата постановки на учет
 70
     1
  0
ENDBLK
  0
BLOCK
  8
p
 62
     7
  2
p2
 70
    66
 10
0.0
 20
0.0
 30
0.0
  0
POLYLINE
  8
p
  6
CONTINUOUS
 62
     7
 70
     1
 75
     5
 66
     1
  0
VERTEX
  8
p
 10
1244930.07
 20
409728.38
 30
0.0
  0
VERTEX
  8
p
 10
1244931.27
 20
409662.58
 30
0.0
  0
VERTEX
  8
p
 10
1244864.91
 20
409657.94
 30
0.0
  0
VERTEX
  8
p
 10
1244822.73
 20
409655.45
 30
0.0
  0
VERTEX
  8
p
 10
1244797.77
 20
409660.18
 30
0.0
  0
VERTEX
  8
p
 10
1244773.75
 20
409678.44
 30
0.0
  0
VERTEX
  8
p
 10
1244763.32
 20
409697.06
 30
0.0
  0
VERTEX
  8
p
 10
1244760.86
 20
409719.13
 30
0.0
  0
VERTEX
  8
p
 10
1244761.99
 20
409754.27
 30
0.0
  0
VERTEX
  8
p
 10
1244738.79
 20
409772.36
 30
0.0
  0
VERTEX
  8
p
 10
1244724.68
 20
409814.61
 30
0.0
  0
VERTEX
  8
p
 10
1244727.25
 20
409868.67
 30
0.0
  0
VERTEX
  8
p
 10
1244738.86
 20
409902.94
 30
0.0
  0
VERTEX
  8
p
 10
1244749.06
 20
410017.37
 30
0.0
  0
VERTEX
  8
p
 10
1244844.06
 20
410009.06
 30
0.0
  0
VERTEX
  8
p
 10
1244867.97
 20
410007.03
 30
0.0
  0
VERTEX
  8
p
 10
1244961.13
 20
409999.12
 30
0.0
  0
VERTEX
  8
p
 10
1244961.17
 20
409890.73
 30
0.0
  0
VERTEX
  8
p
 10
1245105.02
 20
409883.12
 30
0.0
  0
VERTEX
  8
p
 10
1245114.59
 20
409849.93
 30
0.0
  0
VERTEX
  8
p
 10
1245104.64
 20
409811.05
 30
0.0
  0
VERTEX
  8
p
 10
1245056.07
 20
409783.03
 30
0.0
  0
VERTEX
  8
p
 10
1244934.35
 20
409742.2
 30
0.0
  0
SEQEND
  0
TEXT
  8
Points
 10
1244930.07
 20
409728.38
 30
0.0
 40
1.0
  1
1
  0
TEXT
  8
Points
 10
1244931.27
 20
409662.58
 30
0.0
 40
1.0
  1
2
  0
TEXT
  8
Points
 10
1244864.91
 20
409657.94
 30
0.0
 40
1.0
  1
3
  0
TEXT
  8
Points
 10
1244822.73
 20
409655.45
 30
0.0
 40
1.0
  1
4
  0
TEXT
  8
Points
 10
1244797.77
 20
409660.18
 30
0.0
 40
1.0
  1
5
  0
TEXT
  8
Points
 10
1244773.75
 20
409678.44
 30
0.0
 40
1.0
  1
6
  0
TEXT
  8
Points
 10
1244763.32
 20
409697.06
 30
0.0
 40
1.0
  1
7
  0
TEXT
  8
Points
 10
1244760.86
 20
409719.13
 30
0.0
 40
1.0
  1
8
  0
TEXT
  8
Points
 10
1244761.99
 20
409754.27
 30
0.0
 40
1.0
  1
9
  0
TEXT
  8
Points
 10
1244738.79
 20
409772.36
 30
0.0
 40
1.0
  1
10
  0
TEXT
  8
Points
 10
1244724.68
 20
409814.61
 30
0.0
 40
1.0
  1
11
  0
TEXT
  8
Points
 10
1244727.25
 20
409868.67
 30
0.0
 40
1.0
  1
12
  0
TEXT
  8
Points
 10
1244738.86
 20
409902.94
 30
0.0
 40
1.0
  1
13
  0
TEXT
  8
Points
 10
1244749.06
 20
410017.37
 30
0.0
 40
1.0
  1
14
  0
TEXT
  8
Points
 10
1244844.06
 20
410009.06
 30
0.0
 40
1.0
  1
15
  0
TEXT
  8
Points
 10
1244867.97
 20
410007.03
 30
0.0
 40
1.0
  1
16
  0
TEXT
  8
Points
 10
1244961.13
 20
409999.12
 30
0.0
 40
1.0
  1
17
  0
TEXT
  8
Points
 10
1244961.17
 20
409890.73
 30
0.0
 40
1.0
  1
18
  0
TEXT
  8
Points
 10
1245105.02
 20
409883.12
 30
0.0
 40
1.0
  1
19
  0
TEXT
  8
Points
 10
1245114.59
 20
409849.93
 30
0.0
 40
1.0
  1
20
  0
TEXT
  8
Points
 10
1245104.64
 20
409811.05
 30
0.0
 40
1.0
  1
21
  0
TEXT
  8
Points
 10
1245056.07
 20
409783.03
 30
0.0
 40
1.0
  1
22
  0
TEXT
  8
Points
 10
1244934.35
 20
409742.2
 30
0.0
 40
1.0
  1
23
  0
POLYLINE
  8
p
  6
CONTINUOUS
 62
     7
 70
     1
 75
     5
 66
     1
  0
VERTEX
  8
p
 10
1244784.91
 20
409679.32
 30
0.0
  0
VERTEX
  8
p
 10
1244793.94
 20
409692.42
 30
0.0
  0
VERTEX
  8
p
 10
1244780.84
 20
409701.5
 30
0.0
  0
VERTEX
  8
p
 10
1244771.81
 20
409688.4
 30
0.0
  0
SEQEND
  0
TEXT
  8
Points
 10
1244784.91
 20
409679.32
 30
0.0
 40
1.0
  1
1
  0
TEXT
  8
Points
 10
1244793.94
 20
409692.42
 30
0.0
 40
1.0
  1
2
  0
TEXT
  8
Points
 10
1244780.84
 20
409701.5
 30
0.0
 40
1.0
  1
3
  0
TEXT
  8
Points
 10
1244771.81
 20
409688.4
 30
0.0
 40
1.0
  1
4
  0
POLYLINE
  8
p
  6
CONTINUOUS
 62
     7
 70
     1
 75
     5
 66
     1
  0
VERTEX
  8
p
 10
1244820.97
 20
410009.52
 30
0.0
  0
VERTEX
  8
p
 10
1244806.15
 20
410011.1
 30
0.0
  0
VERTEX
  8
p
 10
1244804.71
 20
409996.44
 30
0.0
  0
VERTEX
  8
p
 10
1244819.53
 20
409994.87
 30
0.0
  0
SEQEND
  0
TEXT
  8
Points
 10
1244820.97
 20
410009.52
 30
0.0
 40
1.0
  1
1
  0
TEXT
  8
Points
 10
1244806.15
 20
410011.1
 30
0.0
 40
1.0
  1
2
  0
TEXT
  8
Points
 10
1244804.71
 20
409996.44
 30
0.0
 40
1.0
  1
3
  0
TEXT
  8
Points
 10
1244819.53
 20
409994.87
 30
0.0
 40
1.0
  1
4
  0
TEXT
  8
Labels
 10
1244919.635
 20
409836.41
 30
0.0
 11
1244919.635
 21
409836.41
 31
0.0
 40
1.0
 72
1
 73
2
  1
21:02:010103:2
  0
ATTDEF
  8
p
 10
0.0
 20
0.0
 30
0.0
 40
0.2
  1

  3

  2
Кадастровый номер, обозначение, учетный номер объекта
 70
     1
  0
ATTDEF
  8
p
 10
0.0
 20
0.0
 30
0.0
 40
0.2
  1

  3

  2
Тип объекта
 70
     1
  0
ATTDEF
  8
p
 10
0.0
 20
0.0
 30
0.0
 40
0.2
  1

  3

  2
Площадь, кв.м
 70
     1
  0
ATTDEF
  8
p
 10
0.0
 20
0.0
 30
0.0
 40
0.2
  1

  3

  2
Кадастровый номер квартала
 70
     1
  0
ATTDEF
  8
p
 10
0.0
 20
0.0
 30
0.0
 40
0.2
  1

  3

  2
Адрес (местоположение) участка
 70
     1
  0
ATTDEF
  8
p
 10
0.0
 20
0.0
 30
0.0
 40
0.2
  1

  3

  2
Категория земель
 70
     1
  0
ATTDEF
  8
p
 10
0.0
 20
0.0
 30
0.0
 40
0.2
  1

  3

  2
Вид разрешенного использования по классификатору
 70
     1
  0
ATTDEF
  8
p
 10
0.0
 20
0.0
 30
0.0
 40
0.2
  1

  3

  2
Вид использования по документу
 70
     1
  0
ATTDEF
  8
p
 10
0.0
 20
0.0
 30
0.0
 40
0.2
  1

  3

  2
Кадастровая стоимость
 70
     1
  0
ATTDEF
  8
p
 10
0.0
 20
0.0
 30
0.0
 40
0.2
  1

  3

  2
Статус записи о ЗУ по справочнику
 70
     1
  0
ATTDEF
  8
p
 10
0.0
 20
0.0
 30
0.0
 40
0.2
  1

  3

  2
Дата постановки на учет
 70
     1
  0
ENDBLK
  0
BLOCK
  8
p
 62
     7
  2
p3
 70
    66
 10
0.0
 20
0.0
 30
0.0
  0
POLYLINE
  8
p
  6
CONTINUOUS
 62
     7
 70
     1
 75
     5
 66
     1
  0
VERTEX
  8
p
 10
1244865.91
 20
409657.99
 30
0.0
  0
VERTEX
  8
p
 10
1244869.35
 20
409516.09
 30
0.0
  0
VERTEX
  8
p
 10
1244910.31
 20
409515.54
 30
0.0
  0
VERTEX
  8
p
 10
1244922.99
 20
408967.91
 30
0.0
  0
VERTEX
  8
p
 10
1244842.37
 20
408966.9
 30
0.0
  0
VERTEX
  8
p
 10
1244829.67
 20
409503.82
 30
0.0
  0
VERTEX
  8
p
 10
1244826.06
 20
409515.64
 30
0.0
  0
VERTEX
  8
p
 10
1244822.73
 20
409655.45
 30
0.0
  0
SEQEND
  0
TEXT
  8
Points
 10
1244865.91
 20
409657.99
 30
0.0
 40
1.0
  1
1
  0
TEXT
  8
Points
 10
1244869.35
 20
409516.09
 30
0.0
 40
1.0
  1
2
  0
TEXT
  8
Points
 10
1244910.31
 20
409515.54
 30
0.0
 40
1.0
  1
3
  0
TEXT
  8
Points
 10
1244922.99
 20
408967.91
 30
0.0
 40
1.0
  1
4
  0
TEXT
  8
Points
 10
1244842.37
 20
408966.9
 30
0.0
 40
1.0
  1
5
  0
TEXT
  8
Points
 10
1244829.67
 20
409503.82
 30
0.0
 40
1.0
  1
6
  0
TEXT
  8
Points
 10
1244826.06
 20
409515.64
 30
0.0
 40
1.0
  1
7
  0
TEXT
  8
Points
 10
1244822.73
 20
409655.45
 30
0.0
 40
1.0
  1
8
  0
TEXT
  8
Labels
 10
1244872.86
 20
409312.445
 30
0.0
 11
1244872.86
 21
409312.445
 31
0.0
 40
1.0
 72
1
 73
2
  1
21:02:010103:3
  0
ATTDEF
  8
p
 10
0.0
 20
0.0
 30
0.0
 40
0.2
  1

  3

  2
Кадастровый номер, обозначение, учетный номер объекта
 70
     1
  0
ATTDEF
  8
p
 10
0.0
 20
0.0
 30
0.0
 40
0.2
  1

  3

  2
Тип объекта
 70
     1
  0
ATTDEF
  8
p
 10
0.0
 20
0.0
 30
0.0
 40
0.2
  1

  3

  2
Площадь, кв.м
 70
     1
  0
ATTDEF
  8
p
 10
0.0
 20
0.0
 30
0.0
 40
0.2
  1

  3

  2
Кадастровый номер квартала
 70
     1
  0
ATTDEF
  8
p
 10
0.0
 20
0.0
 30
0.0
 40
0.2
  1

  3

  2
Адрес (местоположение) участка
 70
     1
  0
ATTDEF
  8
p
 10
0.0
 20
0.0
 30
0.0
 40
0.2
  1

  3

  2
Категория земель
 70
     1
  0
ATTDEF
  8
p
 10
0.0
 20
0.0
 30
0.0
 40
0.2
  1

  3

  2
Вид разрешенного использования по классификатору
 70
     1
  0
ATTDEF
  8
p
 10
0.0
 20
0.0
 30
0.0
 40
0.2
  1

  3

  2
Вид использования по документу
 70
     1
  0
ATTDEF
  8
p
 10
0.0
 20
0.0
 30
0.0
 40
0.2
  1

  3

  2
Кадастровая стоимость
 70
     1
  0
ATTDEF
  8
p
 10
0.0
 20
0.0
 30
0.0
 40
0.2
  1

  3

  2
Статус записи о ЗУ по справочнику
 70
     1
  0
ATTDEF
  8
p
 10
0.0
 20
0.0
 30
0.0
 40
0.2
  1

  3

  2
Дата постановки на учет
 70
     1
  0
ENDBLK
  0
BLOCK
  8
p
 62
     7
  2
p4
 70
    66
 10
0.0
 20
0.0
 30
0.0
  0
POLYLINE
  8
p
  6
CONTINUOUS
 62
     7
 70
     1
 75
     5
 66
     1
  0
VERTEX
  8
p
 10
1244900.42
 20
410872.12
 30
0.0
  0
VERTEX
  8
p
 10
1244890.43
 20
410873.17
 30
0.0
  0
VERTEX
  8
p
 10
1244889.6
 20
410865.65
 30
0.0
  0
VERTEX
  8
p
 10
1244899.59
 20
410864.6
 30
0.0
  0
SEQEND
  0
TEXT
  8
Points
 10
1244900.42
 20
410872.12
 30
0.0
 40
1.0
  1
1
  0
TEXT
  8
Points
 10
1244890.43
 20
410873.17
 30
0.0
 40
1.0
  1
2
  0
TEXT
  8
Points
 10
1244889.6
 20
410865.65
 30
0.0
 40
1.0
  1
3
  0
TEXT
  8
Points
 10
1244899.59
 20
410864.6
 30
0.0
 40
1.0
  1
4
  0
TEXT
  8
Labels
 10
1244895.01
 20
410868.885
 30
0.0
 11
1244895.01
 21
410868.885
 31
0.0
 40
1.0
 72
1
 73
2
  1
21:02:010103:4
  0
ATTDEF
  8
p
 10
0.0
 20
0.0
 30
0.0
 40
0.2
  1

  3

  2
Кадастровый номер, обозначение, учетный номер объекта
 70
     1
  0
ATTDEF
  8
p
 10
0.0
 20
0.0
 30
0.0
 40
0.2
  1

  3

  2
Тип объекта
 70
     1
  0
ATTDEF
  8
p
 10
0.0
 20
0.0
 30
0.0
 40
0.2
  1

  3

  2
Площадь, кв.м
 70
     1
  0
ATTDEF
  8
p
 10
0.0
 20
0.0
 30
0.0
 40
0.2
  1

  3

  2
Кадастровый номер квартала
 70
     1
  0
ATTDEF
  8
p
 10
0.0
 20
0.0
 30
0.0
 40
0.2
  1

  3

  2
Адрес (местоположение) участка
 70
     1
  0
ATTDEF
  8
p
 10
0.0
 20
0.0
 30
0.0
 40
0.2
  1

  3

  2
Категория земель
 70
     1
  0
ATTDEF
  8
p
 10
0.0
 20
0.0
 30
0.0
 40
0.2
  1

  3

  2
Вид разрешенного использования по классификатору
 70
     1
  0
ATTDEF
  8
p
 10
0.0
 20
0.0
 30
0.0
 40
0.2
  1

  3

  2
Вид использования по документу
 70
     1
  0
ATTDEF
  8
p
 10
0.0
 20
0.0
 30
0.0
 40
0.2
  1

  3

  2
Кадастровый номер ЕЗП
 70
     1
  0
ATTDEF
  8
p
 10
0.0
 20
0.0
 30
0.0
 40
0.2
  1

  3

  2
Кадастровая стоимость
 70
     1
  0
ATTDEF
  8
p
 10
0.0
 20
0.0
 30
0.0
 40
0.2
  1

  3

  2
Статус записи о ЗУ по справочнику
 70
     1
  0
ATTDEF
  8
p
 10
0.0
 20
0.0
 30
0.0
 40
0.2
  1

  3

  2
Дата постановки на учет
 70
     1
  0
ENDBLK
  0
BLOCK
  8
p
 62
     7
  2
p5
 70
    66
 10
0.0
 20
0.0
 30
0.0
  0
POLYLINE
  8
p
  6
CONTINUOUS
 62
     7
 70
     1
 75
     5
 66
     1
  0
VERTEX
  8
p
 10
1244871.78
 20
410569.77
 30
0.0
  0
VERTEX
  8
p
 10
1244862.05
 20
410570.73
 30
0.0
  0
VERTEX
  8
p
 10
1244861.2
 20
410562.98
 30
0.0
  0
VERTEX
  8
p
 10
1244870.93
 20
410562.02
 30
0.0
  0
SEQEND
  0
TEXT
  8
Points
 10
1244871.78
 20
410569.77
 30
0.0
 40
1.0
  1
1
  0
TEXT
  8
Points
 10
1244862.05
 20
410570.73
 30
0.0
 40
1.0
  1
2
  0
TEXT
  8
Points
 10
1244861.2
 20
410562.98
 30
0.0
 40
1.0
  1
3
  0
TEXT
  8
Points
 10
1244870.93
 20
410562.02
 30
0.0
 40
1.0
  1
4
  0
TEXT
  8
Labels
 10
1244866.49
 20
410566.375
 30
0.0
 11
1244866.49
 21
410566.375
 31
0.0
 40
1.0
 72
1
 73
2
  1
21:02:010103:5
  0
ATTDEF
  8
p
 10
0.0
 20
0.0
 30
0.0
 40
0.2
  1

  3

  2
Кадастровый номер, обозначение, учетный номер объекта
 70
     1
  0
ATTDEF
  8
p
 10
0.0
 20
0.0
 30
0.0
 40
0.2
  1

  3

  2
Тип объекта
 70
     1
  0
ATTDEF
  8
p
 10
0.0
 20
0.0
 30
0.0
 40
0.2
  1

  3

  2
Площадь, кв.м
 70
     1
  0
ATTDEF
  8
p
 10
0.0
 20
0.0
 30
0.0
 40
0.2
  1

  3

  2
Кадастровый номер квартала
 70
     1
  0
ATTDEF
  8
p
 10
0.0
 20
0.0
 30
0.0
 40
0.2
  1

  3

  2
Адрес (местоположение) участка
 70
     1
  0
ATTDEF
  8
p
 10
0.0
 20
0.0
 30
0.0
 40
0.2
  1

  3

  2
Категория земель
 70
     1
  0
ATTDEF
  8
p
 10
0.0
 20
0.0
 30
0.0
 40
0.2
  1

  3

  2
Вид разрешенного использования по классификатору
 70
     1
  0
ATTDEF
  8
p
 10
0.0
 20
0.0
 30
0.0
 40
0.2
  1

  3

  2
Вид использования по документу
 70
     1
  0
ATTDEF
  8
p
 10
0.0
 20
0.0
 30
0.0
 40
0.2
  1

  3

  2
Кадастровый номер ЕЗП
 70
     1
  0
ATTDEF
  8
p
 10
0.0
 20
0.0
 30
0.0
 40
0.2
  1

  3

  2
Кадастровая стоимость
 70
     1
  0
ATTDEF
  8
p
 10
0.0
 20
0.0
 30
0.0
 40
0.2
  1

  3

  2
Статус записи о ЗУ по справочнику
 70
     1
  0
ATTDEF
  8
p
 10
0.0
 20
0.0
 30
0.0
 40
0.2
  1

  3

  2
Дата постановки на учет
 70
     1
  0
ENDBLK
  0
BLOCK
  8
p
 62
     7
  2
p6
 70
    66
 10
0.0
 20
0.0
 30
0.0
  0
POLYLINE
  8
p
  6
CONTINUOUS
 62
     7
 70
     1
 75
     5
 66
     1
  0
VERTEX
  8
p
 10
1244845.68
 20
410295.32
 30
0.0
  0
VERTEX
  8
p
 10
1244835.86
 20
410296.33
 30
0.0
  0
VERTEX
  8
p
 10
1244835.19
 20
410288.86
 30
0.0
  0
VERTEX
  8
p
 10
1244845.02
 20
410287.85
 30
0.0
  0
SEQEND
  0
TEXT
  8
Points
 10
1244845.68
 20
410295.32
 30
0.0
 40
1.0
  1
1
  0
TEXT
  8
Points
 10
1244835.86
 20
410296.33
 30
0.0
 40
1.0
  1
2
  0
TEXT
  8
Points
 10
1244835.19
 20
410288.86
 30
0.0
 40
1.0
  1
3
  0
TEXT
  8
Points
 10
1244845.02
 20
410287.85
 30
0.0
 40
1.0
  1
4
  0
TEXT
  8
Labels
 10
1244840.435
 20
410292.09
 30
0.0
 11
1244840.435
 21
410292.09
 31
0.0
 40
1.0
 72
1
 73
2
  1
21:02:010103:6
  0
ATTDEF
  8
p
 10
0.0
 20
0.0
 30
0.0
 40
0.2
  1

  3

  2
Кадастровый номер, обозначение, учетный номер объекта
 70
     1
  0
ATTDEF
  8
p
 10
0.0
 20
0.0
 30
0.0
 40
0.2
  1

  3

  2
Тип объекта
 70
     1
  0
ATTDEF
  8
p
 10
0.0
 20
0.0
 30
0.0
 40
0.2
  1

  3

  2
Площадь, кв.м
 70
     1
  0
ATTDEF
  8
p
 10
0.0
 20
0.0
 30
0.0
 40
0.2
  1

  3

  2
Кадастровый номер квартала
 70
     1
  0
ATTDEF
  8
p
 10
0.0
 20
0.0
 30
0.0
 40
0.2
  1

  3

  2
Адрес (местоположение) участка
 70
     1
  0
ATTDEF
  8
p
 10
0.0
 20
0.0
 30
0.0
 40
0.2
  1

  3

  2
Категория земель
 70
     1
  0
ATTDEF
  8
p
 10
0.0
 20
0.0
 30
0.0
 40
0.2
  1

  3

  2
Вид разрешенного использования по классификатору
 70
     1
  0
ATTDEF
  8
p
 10
0.0
 20
0.0
 30
0.0
 40
0.2
  1

  3

  2
Вид использования по документу
 70
     1
  0
ATTDEF
  8
p
 10
0.0
 20
0.0
 30
0.0
 40
0.2
  1

  3

  2
Кадастровый номер ЕЗП
 70
     1
  0
ATTDEF
  8
p
 10
0.0
 20
0.0
 30
0.0
 40
0.2
  1

  3

  2
Кадастровая стоимость
 70
     1
  0
ATTDEF
  8
p
 10
0.0
 20
0.0
 30
0.0
 40
0.2
  1

  3

  2
Статус записи о ЗУ по справочнику
 70
     1
  0
ATTDEF
  8
p
 10
0.0
 20
0.0
 30
0.0
 40
0.2
  1

  3

  2
Дата постановки на учет
 70
     1
  0
ENDBLK
  0
BLOCK
  8
p
 62
     7
  2
p7
 70
    66
 10
0.0
 20
0.0
 30
0.0
  0
POLYLINE
  8
p
  6
CONTINUOUS
 62
     7
 70
     1
 75
     5
 66
     1
  0
VERTEX
  8
p
 10
1244820.97
 20
410009.52
 30
0.0
  0
VERTEX
  8
p
 10
1244806.15
 20
410011.1
 30
0.0
  0
VERTEX
  8
p
 10
1244804.71
 20
409996.44
 30
0.0
  0
VERTEX
  8
p
 10
1244819.53
 20
409994.87
 30
0.0
  0
SEQEND
  0
TEXT
  8
Points
 10
1244820.97
 20
410009.52
 30
0.0
 40
1.0
  1
1
  0
TEXT
  8
Points
 10
1244806.15
 20
410011.1
 30
0.0
 40
1.0
  1
2
  0
TEXT
  8
Points
 10
1244804.71
 20
409996.44
 30
0.0
 40
1.0
  1
3
  0
TEXT
  8
Points
 10
1244819.53
 20
409994.87
 30
0.0
 40
1.0
  1
4
  0
TEXT
  8
Labels
 10
1244812.84
 20
410002.985
 30
0.0
 11
1244812.84
 21
410002.985
 31
0.0
 40
1.0
 72
1
 73
2
  1
21:02:010103:7
  0
ATTDEF
  8
p
 10
0.0
 20
0.0
 30
0.0
 40
0.2
  1

  3

  2
Кадастровый номер, обозначение, учетный номер объекта
 70
     1
  0
ATTDEF
  8
p
 10
0.0
 20
0.0
 30
0.0
 40
0.2
  1

  3

  2
Тип объекта
 70
     1
  0
ATTDEF
  8
p
 10
0.0
 20
0.0
 30
0.0
 40
0.2
  1

  3

  2
Площадь, кв.м
 70
     1
  0
ATTDEF
  8
p
 10
0.0
 20
0.0
 30
0.0
 40
0.2
  1

  3

  2
Кадастровый номер квартала
 70
     1
  0
ATTDEF
  8
p
 10
0.0
 20
0.0
 30
0.0
 40
0.2
  1

  3

  2
Адрес (местоположение) участка
 70
     1
  0
ATTDEF
  8
p
 10
0.0
 20
0.0
 30
0.0
 40
0.2
  1

  3

  2
Категория земель
 70
     1
  0
ATTDEF
  8
p
 10
0.0
 20
0.0
 30
0.0
 40
0.2
  1

  3

  2
Вид разрешенного использования по классификатору
 70
     1
  0
ATTDEF
  8
p
 10
0.0
 20
0.0
 30
0.0
 40
0.2
  1

  3

  2
Вид использования по документу
 70
     1
  0
ATTDEF
  8
p
 10
0.0
 20
0.0
 30
0.0
 40
0.2
  1

  3

  2
Кадастровый номер ЕЗП
 70
     1
  0
ATTDEF
  8
p
 10
0.0
 20
0.0
 30
0.0
 40
0.2
  1

  3

  2
Кадастровая стоимость
 70
     1
  0
ATTDEF
  8
p
 10
0.0
 20
0.0
 30
0.0
 40
0.2
  1

  3

  2
Статус записи о ЗУ по справочнику
 70
     1
  0
ATTDEF
  8
p
 10
0.0
 20
0.0
 30
0.0
 40
0.2
  1

  3

  2
Дата постановки на учет
 70
     1
  0
ENDBLK
  0
BLOCK
  8
p
 62
     7
  2
p8
 70
    66
 10
0.0
 20
0.0
 30
0.0
  0
POLYLINE
  8
p
  6
CONTINUOUS
 62
     7
 70
     1
 75
     5
 66
     1
  0
VERTEX
  8
p
 10
1244784.91
 20
409679.32
 30
0.0
  0
VERTEX
  8
p
 10
1244793.94
 20
409692.42
 30
0.0
  0
VERTEX
  8
p
 10
1244780.84
 20
409701.5
 30
0.0
  0
VERTEX
  8
p
 10
1244771.81
 20
409688.4
 30
0.0
  0
SEQEND
  0
TEXT
  8
Points
 10
1244784.91
 20
409679.32
 30
0.0
 40
1.0
  1
1
  0
TEXT
  8
Points
 10
1244793.94
 20
409692.42
 30
0.0
 40
1.0
  1
2
  0
TEXT
  8
Points
 10
1244780.84
 20
409701.5
 30
0.0
 40
1.0
  1
3
  0
TEXT
  8
Points
 10
1244771.81
 20
409688.4
 30
0.0
 40
1.0
  1
4
  0
TEXT
  8
Labels
 10
1244782.875
 20
409690.41
 30
0.0
 11
1244782.875
 21
409690.41
 31
0.0
 40
1.0
 72
1
 73
2
  1
21:02:010103:8
  0
ATTDEF
  8
p
 10
0.0
 20
0.0
 30
0.0
 40
0.2
  1

  3

  2
Кадастровый номер, обозначение, учетный номер объекта
 70
     1
  0
ATTDEF
  8
p
 10
0.0
 20
0.0
 30
0.0
 40
0.2
  1

  3

  2
Тип объекта
 70
     1
  0
ATTDEF
  8
p
 10
0.0
 20
0.0
 30
0.0
 40
0.2
  1

  3

  2
Площадь, кв.м
 70
     1
  0
ATTDEF
  8
p
 10
0.0
 20
0.0
 30
0.0
 40
0.2
  1

  3

  2
Кадастровый номер квартала
 70
     1
  0
ATTDEF
  8
p
 10
0.0
 20
0.0
 30
0.0
 40
0.2
  1

  3

  2
Адрес (местоположение) участка
 70
     1
  0
ATTDEF
  8
p
 10
0.0
 20
0.0
 30
0.0
 40
0.2
  1

  3

  2
Категория земель
 70
     1
  0
ATTDEF
  8
p
 10
0.0
 20
0.0
 30
0.0
 40
0.2
  1

  3

  2
Вид разрешенного использования по классификатору
 70
     1
  0
ATTDEF
  8
p
 10
0.0
 20
0.0
 30
0.0
 40
0.2
  1

  3

  2
Вид использования по документу
 70
     1
  0
ATTDEF
  8
p
 10
0.0
 20
0.0
 30
0.0
 40
0.2
  1

  3

  2
Кадастровый номер ЕЗП
 70
     1
  0
ATTDEF
  8
p
 10
0.0
 20
0.0
 30
0.0
 40
0.2
  1

  3

  2
Кадастровая стоимость
 70
     1
  0
ATTDEF
  8
p
 10
0.0
 20
0.0
 30
0.0
 40
0.2
  1

  3

  2
Статус записи о ЗУ по справочнику
 70
     1
  0
ATTDEF
  8
p
 10
0.0
 20
0.0
 30
0.0
 40
0.2
  1

  3

  2
Дата постановки на учет
 70
     1
  0
ENDBLK
  0
BLOCK
  8
b
 62
     7
  2
b1
 70
    66
 10
0.0
 20
0.0
 30
0.0
  0
POLYLINE
  8
b
  6
CONTINUOUS
 62
     7
 70
     1
 75
     5
 66
     1
  0
VERTEX
  8
b
 10
1244766.06
 20
411007.44
 30
0.0
  0
VERTEX
  8
b
 10
1244802.47
 20
410581.02
 30
0.0
  0
VERTEX
  8
b
 10
1244785.25
 20
410399.74
 30
0.0
  0
VERTEX
  8
b
 10
1244761.24
 20
410256.1
 30
0.0
  0
VERTEX
  8
b
 10
1244729.86
 20
409902.98
 30
0.0
  0
VERTEX
  8
b
 10
1244723.25
 20
409868.68
 30
0.0
  0
VERTEX
  8
b
 10
1244720.68
 20
409814.63
 30
0.0
  0
VERTEX
  8
b
 10
1244727.79
 20
409772.4
 30
0.0
  0
VERTEX
  8
b
 10
1244759.99
 20
409754.28
 30
0.0
  0
VERTEX
  8
b
 10
1244760.86
 20
409719.13
 30
0.0
  0
VERTEX
  8
b
 10
1244763.32
 20
409697.06
 30
0.0
  0
VERTEX
  8
b
 10
1244773.75
 20
409678.44
 30
0.0
  0
VERTEX
  8
b
 10
1244797.77
 20
409660.18
 30
0.0
  0
VERTEX
  8
b
 10
1244822.73
 20
409655.45
 30
0.0
  0
VERTEX
  8
b
 10
1244826.06
 20
409515.64
 30
0.0
  0
VERTEX
  8
b
 10
1244829.67
 20
409503.82
 30
0.0
  0
VERTEX
  8
b
 10
1244842.37
 20
408966.89
 30
0.0
  0
VERTEX
  8
b
 10
1244923.19
 20
408967.91
 30
0.0
  0
VERTEX
  8
b
 10
1244909.87
 20
409660.59
 30
0.0
  0
VERTEX
  8
b
 10
1244931.27
 20
409662.58
 30
0.0
  0
VERTEX
  8
b
 10
1244930.07
 20
409728.38
 30
0.0
  0
VERTEX
  8
b
 10
1244934.34
 20
409740.2
 30
0.0
  0
VERTEX
  8
b
 10
1245056.07
 20
409781.03
 30
0.0
  0
VERTEX
  8
b
 10
1245106.77
 20
409811.16
 30
0.0
  0
VERTEX
  8
b
 10
1245150.07
 20
409813.55
 30
0.0
  0
VERTEX
  8
b
 10
1245159.62
 20
409850.57
 30
0.0
  0
VERTEX
  8
b
 10
1245150.88
 20
409880.68
 30
0.0
  0
VERTEX
  8
b
 10
1245089.76
 20
409919.02
 30
0.0
  0
VERTEX
  8
b
 10
1244996.87
 20
410098.51
 30
0.0
  0
VERTEX
  8
b
 10
1245003.3
 20
410215.9
 30
0.0
  0
VERTEX
  8
b
 10
1245011.12
 20
410417.06
 30
0.0
  0
VERTEX
  8
b
 10
1245036.98
 20
410439.5
 30
0.0
  0
VERTEX
  8
b
 10
1245021.51
 20
410944.71
 30
0.0
  0
VERTEX
  8
b
 10
1244991.5
 20
410985.67
 30
0.0
  0
VERTEX
  8
b
 10
1245006.09
 20
411034.81
 30
0.0
  0
VERTEX
  8
b
 10
1244811.28
 20
411010.67
 30
0.0
  0
SEQEND
  0
TEXT
  8
Points
 10
1244766.06
 20
411007.44
 30
0.0
 40
1.0
  1
1
  0
TEXT
  8
Points
 10
1244802.47
 20
410581.02
 30
0.0
 40
1.0
  1
2
  0
TEXT
  8
Points
 10
1244785.25
 20
410399.74
 30
0.0
 40
1.0
  1
3
  0
TEXT
  8
Points
 10
1244761.24
 20
410256.1
 30
0.0
 40
1.0
  1
4
  0
TEXT
  8
Points
 10
1244729.86
 20
409902.98
 30
0.0
 40
1.0
  1
5
  0
TEXT
  8
Points
 10
1244723.25
 20
409868.68
 30
0.0
 40
1.0
  1
6
  0
TEXT
  8
Points
 10
1244720.68
 20
409814.63
 30
0.0
 40
1.0
  1
7
  0
TEXT
  8
Points
 10
1244727.79
 20
409772.4
 30
0.0
 40
1.0
  1
8
  0
TEXT
  8
Points
 10
1244759.99
 20
409754.28
 30
0.0
 40
1.0
  1
9
  0
TEXT
  8
Points
 10
1244760.86
 20
409719.13
 30
0.0
 40
1.0
  1
10
  0
TEXT
  8
Points
 10
1244763.32
 20
409697.06
 30
0.0
 40
1.0
  1
11
  0
TEXT
  8
Points
 10
1244773.75
 20
409678.44
 30
0.0
 40
1.0
  1
12
  0
TEXT
  8
Points
 10
1244797.77
 20
409660.18
 30
0.0
 40
1.0
  1
13
  0
TEXT
  8
Points
 10
1244822.73
 20
409655.45
 30
0.0
 40
1.0
  1
14
  0
TEXT
  8
Points
 10
1244826.06
 20
409515.64
 30
0.0
 40
1.0
  1
15
  0
TEXT
  8
Points
 10
1244829.67
 20
409503.82
 30
0.0
 40
1.0
  1
16
  0
TEXT
  8
Points
 10
1244842.37
 20
408966.89
 30
0.0
 40
1.0
  1
17
  0
TEXT
  8
Points
 10
1244923.19
 20
408967.91
 30
0.0
 40
1.0
  1
18
  0
TEXT
  8
Points
 10
1244909.87
 20
409660.59
 30
0.0
 40
1.0
  1
19
  0
TEXT
  8
Points
 10
1244931.27
 20
409662.58
 30
0.0
 40
1.0
  1
20
  0
TEXT
  8
Points
 10
1244930.07
 20
409728.38
 30
0.0
 40
1.0
  1
21
  0
TEXT
  8
Points
 10
1244934.34
 20
409740.2
 30
0.0
 40
1.0
  1
22
  0
TEXT
  8
Points
 10
1245056.07
 20
409781.03
 30
0.0
 40
1.0
  1
23
  0
TEXT
  8
Points
 10
1245106.77
 20
409811.16
 30
0.0
 40
1.0
  1
24
  0
TEXT
  8
Points
 10
1245150.07
 20
409813.55
 30
0.0
 40
1.0
  1
25
  0
TEXT
  8
Points
 10
1245159.62
 20
409850.57
 30
0.0
 40
1.0
  1
26
  0
TEXT
  8
Points
 10
1245150.88
 20
409880.68
 30
0.0
 40
1.0
  1
27
  0
TEXT
  8
Points
 10
1245089.76
 20
409919.02
 30
0.0
 40
1.0
  1
28
  0
TEXT
  8
Points
 10
1244996.87
 20
410098.51
 30
0.0
 40
1.0
  1
29
  0
TEXT
  8
Points
 10
1245003.3
 20
410215.9
 30
0.0
 40
1.0
  1
30
  0
TEXT
  8
Points
 10
1245011.12
 20
410417.06
 30
0.0
 40
1.0
  1
31
  0
TEXT
  8
Points
 10
1245036.98
 20
410439.5
 30
0.0
 40
1.0
  1
32
  0
TEXT
  8
Points
 10
1245021.51
 20
410944.71
 30
0.0
 40
1.0
  1
33
  0
TEXT
  8
Points
 10
1244991.5
 20
410985.67
 30
0.0
 40
1.0
  1
34
  0
TEXT
  8
Points
 10
1245006.09
 20
411034.81
 30
0.0
 40
1.0
  1
35
  0
TEXT
  8
Points
 10
1244811.28
 20
411010.67
 30
0.0
 40
1.0
  1
36
  0
TEXT
  8
Labels
 10
1244940.15
 20
410000.85
 30
0.0
 11
1244940.15
 21
410000.85
 31
0.0
 40
1.0
 72
1
 73
2
  1
21:02:010103
  0
ATTDEF
  8
b
 10
0.0
 20
0.0
 30
0.0
 40
0.2
  1

  3

  2
Кадастровый номер, обозначение, учетный номер объекта
 70
     1
  0
ATTDEF
  8
b
 10
0.0
 20
0.0
 30
0.0
 40
0.2
  1

  3

  2
Тип объекта
 70
     1
  0
ENDBLK
  0
ENDSEC
  0
SECTION
  2
ENTITIES
  0
INSERT
  2
p1
  8
p
 62
     7
 10
0.0
 20
0.0
 30
0.0
 66
     1
  0
ATTRIB
  8
p
 10
1244845.68
 20
410295.32
 30
0.0
 40
0.2
  1
21:02:010103:1
  2
Кадастровый номер, обозначение, учетный номер объекта
 70
     1
  0
ATTRIB
  8
p
 10
1244845.68
 20
410295.32
 30
0.0
 40
0.2
  1
Земельный участок
  2
Тип объекта
 70
     1
  0
ATTRIB
  8
p
 10
1244845.68
 20
410295.32
 30
0.0
 40
0.2
  1
185130
  2
Площадь, кв.м
 70
     1
  0
ATTRIB
  8
p
 10
1244845.68
 20
410295.32
 30
0.0
 40
0.2
  1
21:02:010103
  2
Кадастровый номер квартала
 70
     1
  0
ATTRIB
  8
p
 10
1244845.68
 20
410295.32
 30
0.0
 40
0.2
  1
21, г Новочебоксарск, Чувашская Республика - Чувашия, г. Новочебоксарск, пойменная часть намывной плотины
  2
Адрес (местоположение) участка
 70
     1
  0
ATTRIB
  8
p
 10
1244845.68
 20
410295.32
 30
0.0
 40
0.2
  1
Земли населённых пунктов
  2
Категория земель
 70
     1
  0
ATTRIB
  8
p
 10
1244845.68
 20
410295.32
 30
0.0
 40
0.2
  1
Для иных видов использования, характерных для населённых пунктов
  2
Вид разрешенного использования по классификатору
 70
     1
  0
ATTRIB
  8
p
 10
1244845.68
 20
410295.32
 30
0.0
 40
0.2
  1
Для осуществления уставной деятельности
  2
Вид использования по документу
 70
     1
  0
ATTRIB
  8
p
 10
1244845.68
 20
410295.32
 30
0.0
 40
0.2
  1
149029650
  2
Кадастровая стоимость
 70
     1
  0
ATTRIB
  8
p
 10
1244845.68
 20
410295.32
 30
0.0
 40
0.2
  1
Ранее учтенный
  2
Статус записи о ЗУ по справочнику
 70
     1
  0
ATTRIB
  8
p
 10
1244845.68
 20
410295.32
 30
0.0
 40
0.2
  1
14.02.2003
  2
Дата постановки на учет
 70
     1
  0
SEQEND
  8
p
 62
     7
  0
INSERT
  2
p2
  8
p
 62
     7
 10
0.0
 20
0.0
 30
0.0
 66
     1
  0
ATTRIB
  8
p
 10
1244820.97
 20
410009.52
 30
0.0
 40
0.2
  1
21:02:010103:2
  2
Кадастровый номер, обозначение, учетный номер объекта
 70
     1
  0
ATTRIB
  8
p
 10
1244820.97
 20
410009.52
 30
0.0
 40
0.2
  1
Земельный участок
  2
Тип объекта
 70
     1
  0
ATTRIB
  8
p
 10
1244820.97
 20
410009.52
 30
0.0
 40
0.2
  1
88376
  2
Площадь, кв.м
 70
     1
  0
ATTRIB
  8
p
 10
1244820.97
 20
410009.52
 30
0.0
 40
0.2
  1
21:02:010103
  2
Кадастровый номер квартала
 70
     1
  0
ATTRIB
  8
p
 10
1244820.97
 20
410009.52
 30
0.0
 40
0.2
  1
21, г Новочебоксарск, ул Набережная, д 34, Чувашская Республика - Чувашия, г. Новочебоксарск, ул. Набережная, дом 34
  2
Адрес (местоположение) участка
 70
     1
  0
ATTRIB
  8
p
 10
1244820.97
 20
410009.52
 30
0.0
 40
0.2
  1
Земли населённых пунктов
  2
Категория земель
 70
     1
  0
ATTRIB
  8
p
 10
1244820.97
 20
410009.52
 30
0.0
 40
0.2
  1
Для иных видов использования, характерных для населённых пунктов
  2
Вид разрешенного использования по классификатору
 70
     1
  0
ATTRIB
  8
p
 10
1244820.97
 20
410009.52
 30
0.0
 40
0.2
  1
Для осуществления уставной деятельности
  2
Вид использования по документу
 70
     1
  0
ATTRIB
  8
p
 10
1244820.97
 20
410009.52
 30
0.0
 40
0.2
  1
76003360
  2
Кадастровая стоимость
 70
     1
  0
ATTRIB
  8
p
 10
1244820.97
 20
410009.52
 30
0.0
 40
0.2
  1
Ранее учтенный
  2
Статус записи о ЗУ по справочнику
 70
     1
  0
ATTRIB
  8
p
 10
1244820.97
 20
410009.52
 30
0.0
 40
0.2
  1
14.02.2003
  2
Дата постановки на учет
 70
     1
  0
SEQEND
  8
p
 62
     7
  0
INSERT
  2
p3
  8
p
 62
     7
 10
0.0
 20
0.0
 30
0.0
 66
     1
  0
ATTRIB
  8
p
 10
1244865.91
 20
409657.99
 30
0.0
 40
0.2
  1
21:02:010103:3
  2
Кадастровый номер, обозначение, учетный номер объекта
 70
     1
  0
ATTRIB
  8
p
 10
1244865.91
 20
409657.99
 30
0.0
 40
0.2
  1
Земельный участок
  2
Тип объекта
 70
     1
  0
ATTRIB
  8
p
 10
1244865.91
 20
409657.99
 30
0.0
 40
0.2
  1
50417
  2
Площадь, кв.м
 70
     1
  0
ATTRIB
  8
p
 10
1244865.91
 20
409657.99
 30
0.0
 40
0.2
  1
21:02:010103
  2
Кадастровый номер квартала
 70
     1
  0
ATTRIB
  8
p
 10
1244865.91
 20
409657.99
 30
0.0
 40
0.2
  1
21, г Новочебоксарск, ул Набережная, д 34, Чувашская Республика - Чувашия, г. Новочебоксарск, ул. Набережная, дом 34
  2
Адрес (местоположение) участка
 70
     1
  0
ATTRIB
  8
p
 10
1244865.91
 20
409657.99
 30
0.0
 40
0.2
  1
Земли населённых пунктов
  2
Категория земель
 70
     1
  0
ATTRIB
  8
p
 10
1244865.91
 20
409657.99
 30
0.0
 40
0.2
  1
Для иных видов использования, характерных для населённых пунктов
  2
Вид разрешенного использования по классификатору
 70
     1
  0
ATTRIB
  8
p
 10
1244865.91
 20
409657.99
 30
0.0
 40
0.2
  1
Для осуществления уставной деятельности
  2
Вид использования по документу
 70
     1
  0
ATTRIB
  8
p
 10
1244865.91
 20
409657.99
 30
0.0
 40
0.2
  1
45173632
  2
Кадастровая стоимость
 70
     1
  0
ATTRIB
  8
p
 10
1244865.91
 20
409657.99
 30
0.0
 40
0.2
  1
Ранее учтенный
  2
Статус записи о ЗУ по справочнику
 70
     1
  0
ATTRIB
  8
p
 10
1244865.91
 20
409657.99
 30
0.0
 40
0.2
  1
14.02.2003
  2
Дата постановки на учет
 70
     1
  0
SEQEND
  8
p
 62
     7
  0
INSERT
  2
p4
  8
p
 62
     7
 10
0.0
 20
0.0
 30
0.0
 66
     1
  0
ATTRIB
  8
p
 10
1244900.42
 20
410872.12
 30
0.0
 40
0.2
  1
21:02:010103:4
  2
Кадастровый номер, обозначение, учетный номер объекта
 70
     1
  0
ATTRIB
  8
p
 10
1244900.42
 20
410872.12
 30
0.0
 40
0.2
  1
Земельный участок
  2
Тип объекта
 70
     1
  0
ATTRIB
  8
p
 10
1244900.42
 20
410872.12
 30
0.0
 40
0.2
  1
76
  2
Площадь, кв.м
 70
     1
  0
ATTRIB
  8
p
 10
1244900.42
 20
410872.12
 30
0.0
 40
0.2
  1
21:02:010103
  2
Кадастровый номер квартала
 70
     1
  0
ATTRIB
  8
p
 10
1244900.42
 20
410872.12
 30
0.0
 40
0.2
  1
21, г Новочебоксарск, Чувашская Республика - Чувашия, г. Новочебоксарск
  2
Адрес (местоположение) участка
 70
     1
  0
ATTRIB
  8
p
 10
1244900.42
 20
410872.12
 30
0.0
 40
0.2
  1
Земли населённых пунктов
  2
Категория земель
 70
     1
  0
ATTRIB
  8
p
 10
1244900.42
 20
410872.12
 30
0.0
 40
0.2
  1
Для размещения иных объектов промышленности, энергетики, транспорта, связи, радиовещания, телевидения, информатики, обеспечения космической деятельности, обороны, безопасности и иного специального назначения
  2
Вид разрешенного использования по классификатору
 70
     1
  0
ATTRIB
  8
p
 10
1244900.42
 20
410872.12
 30
0.0
 40
0.2
  1
Для содержания и эксплуатации семи опор линий электропередач ЛЭП-220 кВ &quot;Чебоксарская ГЭС-Чигашево&quot;
  2
Вид использования по документу
 70
     1
  0
ATTRIB
  8
p
 10
1244900.42
 20
410872.12
 30
0.0
 40
0.2
  1
21:02:000000:6
  2
Кадастровый номер ЕЗП
 70
     1
  0
ATTRIB
  8
p
 10
1244900.42
 20
410872.12
 30
0.0
 40
0.2
  1
39919.76
  2
Кадастровая стоимость
 70
     1
  0
ATTRIB
  8
p
 10
1244900.42
 20
410872.12
 30
0.0
 40
0.2
  1
Ранее учтенный
  2
Статус записи о ЗУ по справочнику
 70
     1
  0
ATTRIB
  8
p
 10
1244900.42
 20
410872.12
 30
0.0
 40
0.2
  1
29.01.2004
  2
Дата постановки на учет
 70
     1
  0
SEQEND
  8
p
 62
     7
  0
INSERT
  2
p5
  8
p
 62
     7
 10
0.0
 20
0.0
 30
0.0
 66
     1
  0
ATTRIB
  8
p
 10
1244871.78
 20
410569.77
 30
0.0
 40
0.2
  1
21:02:010103:5
  2
Кадастровый номер, обозначение, учетный номер объекта
 70
     1
  0
ATTRIB
  8
p
 10
1244871.78
 20
410569.77
 30
0.0
 40
0.2
  1
Земельный участок
  2
Тип объекта
 70
     1
  0
ATTRIB
  8
p
 10
1244871.78
 20
410569.77
 30
0.0
 40
0.2
  1
76
  2
Площадь, кв.м
 70
     1
  0
ATTRIB
  8
p
 10
1244871.78
 20
410569.77
 30
0.0
 40
0.2
  1
21:02:010103
  2
Кадастровый номер квартала
 70
     1
  0
ATTRIB
  8
p
 10
1244871.78
 20
410569.77
 30
0.0
 40
0.2
  1
21, г Новочебоксарск, Чувашская Республика - Чувашия, г. Новочебоксарск
  2
Адрес (местоположение) участка
 70
     1
  0
ATTRIB
  8
p
 10
1244871.78
 20
410569.77
 30
0.0
 40
0.2
  1
Земли населённых пунктов
  2
Категория земель
 70
     1
  0
ATTRIB
  8
p
 10
1244871.78
 20
410569.77
 30
0.0
 40
0.2
  1
Для размещения иных объектов промышленности, энергетики, транспорта, связи, радиовещания, телевидения, информатики, обеспечения космической деятельности, обороны, безопасности и иного специального назначения
  2
Вид разрешенного использования по классификатору
 70
     1
  0
ATTRIB
  8
p
 10
1244871.78
 20
410569.77
 30
0.0
 40
0.2
  1
Для содержания и эксплуатации семи опор линий электропередач ЛЭП-220 кВ &quot;Чебоксарская ГЭС-Чигашево&quot;
  2
Вид использования по документу
 70
     1
  0
ATTRIB
  8
p
 10
1244871.78
 20
410569.77
 30
0.0
 40
0.2
  1
21:02:000000:6
  2
Кадастровый номер ЕЗП
 70
     1
  0
ATTRIB
  8
p
 10
1244871.78
 20
410569.77
 30
0.0
 40
0.2
  1
39919.76
  2
Кадастровая стоимость
 70
     1
  0
ATTRIB
  8
p
 10
1244871.78
 20
410569.77
 30
0.0
 40
0.2
  1
Ранее учтенный
  2
Статус записи о ЗУ по справочнику
 70
     1
  0
ATTRIB
  8
p
 10
1244871.78
 20
410569.77
 30
0.0
 40
0.2
  1
29.01.2004
  2
Дата постановки на учет
 70
     1
  0
SEQEND
  8
p
 62
     7
  0
INSERT
  2
p6
  8
p
 62
     7
 10
0.0
 20
0.0
 30
0.0
 66
     1
  0
ATTRIB
  8
p
 10
1244845.68
 20
410295.32
 30
0.0
 40
0.2
  1
21:02:010103:6
  2
Кадастровый номер, обозначение, учетный номер объекта
 70
     1
  0
ATTRIB
  8
p
 10
1244845.68
 20
410295.32
 30
0.0
 40
0.2
  1
Земельный участок
  2
Тип объекта
 70
     1
  0
ATTRIB
  8
p
 10
1244845.68
 20
410295.32
 30
0.0
 40
0.2
  1
74
  2
Площадь, кв.м
 70
     1
  0
ATTRIB
  8
p
 10
1244845.68
 20
410295.32
 30
0.0
 40
0.2
  1
21:02:010103
  2
Кадастровый номер квартала
 70
     1
  0
ATTRIB
  8
p
 10
1244845.68
 20
410295.32
 30
0.0
 40
0.2
  1
21, г Новочебоксарск, Чувашская Республика - Чувашия, г. Новочебоксарск
  2
Адрес (местоположение) участка
 70
     1
  0
ATTRIB
  8
p
 10
1244845.68
 20
410295.32
 30
0.0
 40
0.2
  1
Земли населённых пунктов
  2
Категория земель
 70
     1
  0
ATTRIB
  8
p
 10
1244845.68
 20
410295.32
 30
0.0
 40
0.2
  1
Для размещения иных объектов промышленности, энергетики, транспорта, связи, радиовещания, телевидения, информатики, обеспечения космической деятельности, обороны, безопасности и иного специального назначения
  2
Вид разрешенного использования по классификатору
 70
     1
  0
ATTRIB
  8
p
 10
1244845.68
 20
410295.32
 30
0.0
 40
0.2
  1
Для содержания и эксплуатации семи опор линий электропередач ЛЭП-220 кВ &quot;Чебоксарская ГЭС-Чигашево&quot;
  2
Вид использования по документу
 70
     1
  0
ATTRIB
  8
p
 10
1244845.68
 20
410295.32
 30
0.0
 40
0.2
  1
21:02:000000:6
  2
Кадастровый номер ЕЗП
 70
     1
  0
ATTRIB
  8
p
 10
1244845.68
 20
410295.32
 30
0.0
 40
0.2
  1
38869.24
  2
Кадастровая стоимость
 70
     1
  0
ATTRIB
  8
p
 10
1244845.68
 20
410295.32
 30
0.0
 40
0.2
  1
Ранее учтенный
  2
Статус записи о ЗУ по справочнику
 70
     1
  0
ATTRIB
  8
p
 10
1244845.68
 20
410295.32
 30
0.0
 40
0.2
  1
29.01.2004
  2
Дата постановки на учет
 70
     1
  0
SEQEND
  8
p
 62
     7
  0
INSERT
  2
p7
  8
p
 62
     7
 10
0.0
 20
0.0
 30
0.0
 66
     1
  0
ATTRIB
  8
p
 10
1244820.97
 20
410009.52
 30
0.0
 40
0.2
  1
21:02:010103:7
  2
Кадастровый номер, обозначение, учетный номер объекта
 70
     1
  0
ATTRIB
  8
p
 10
1244820.97
 20
410009.52
 30
0.0
 40
0.2
  1
Земельный участок
  2
Тип объекта
 70
     1
  0
ATTRIB
  8
p
 10
1244820.97
 20
410009.52
 30
0.0
 40
0.2
  1
219
  2
Площадь, кв.м
 70
     1
  0
ATTRIB
  8
p
 10
1244820.97
 20
410009.52
 30
0.0
 40
0.2
  1
21:02:010103
  2
Кадастровый номер квартала
 70
     1
  0
ATTRIB
  8
p
 10
1244820.97
 20
410009.52
 30
0.0
 40
0.2
  1
21, г Новочебоксарск, Чувашская Республика - Чувашия, г. Новочебоксарск
  2
Адрес (местоположение) участка
 70
     1
  0
ATTRIB
  8
p
 10
1244820.97
 20
410009.52
 30
0.0
 40
0.2
  1
Земли населённых пунктов
  2
Категория земель
 70
     1
  0
ATTRIB
  8
p
 10
1244820.97
 20
410009.52
 30
0.0
 40
0.2
  1
Для размещения иных объектов промышленности, энергетики, транспорта, связи, радиовещания, телевидения, информатики, обеспечения космической деятельности, обороны, безопасности и иного специального назначения
  2
Вид разрешенного использования по классификатору
 70
     1
  0
ATTRIB
  8
p
 10
1244820.97
 20
410009.52
 30
0.0
 40
0.2
  1
Для содержания и эксплуатации семи опор линий электропередач ЛЭП-220 кВ &quot;Чебоксарская ГЭС-Чигашево&quot;
  2
Вид использования по документу
 70
     1
  0
ATTRIB
  8
p
 10
1244820.97
 20
410009.52
 30
0.0
 40
0.2
  1
21:02:000000:6
  2
Кадастровый номер ЕЗП
 70
     1
  0
ATTRIB
  8
p
 10
1244820.97
 20
410009.52
 30
0.0
 40
0.2
  1
115031.94
  2
Кадастровая стоимость
 70
     1
  0
ATTRIB
  8
p
 10
1244820.97
 20
410009.52
 30
0.0
 40
0.2
  1
Ранее учтенный
  2
Статус записи о ЗУ по справочнику
 70
     1
  0
ATTRIB
  8
p
 10
1244820.97
 20
410009.52
 30
0.0
 40
0.2
  1
29.01.2004
  2
Дата постановки на учет
 70
     1
  0
SEQEND
  8
p
 62
     7
  0
INSERT
  2
p8
  8
p
 62
     7
 10
0.0
 20
0.0
 30
0.0
 66
     1
  0
ATTRIB
  8
p
 10
1244784.91
 20
409679.32
 30
0.0
 40
0.2
  1
21:02:010103:8
  2
Кадастровый номер, обозначение, учетный номер объекта
 70
     1
  0
ATTRIB
  8
p
 10
1244784.91
 20
409679.32
 30
0.0
 40
0.2
  1
Земельный участок
  2
Тип объекта
 70
     1
  0
ATTRIB
  8
p
 10
1244784.91
 20
409679.32
 30
0.0
 40
0.2
  1
254
  2
Площадь, кв.м
 70
     1
  0
ATTRIB
  8
p
 10
1244784.91
 20
409679.32
 30
0.0
 40
0.2
  1
21:02:010103
  2
Кадастровый номер квартала
 70
     1
  0
ATTRIB
  8
p
 10
1244784.91
 20
409679.32
 30
0.0
 40
0.2
  1
21, г Новочебоксарск, Чувашская Республика - Чувашия, г. Новочебоксарск
  2
Адрес (местоположение) участка
 70
     1
  0
ATTRIB
  8
p
 10
1244784.91
 20
409679.32
 30
0.0
 40
0.2
  1
Земли населённых пунктов
  2
Категория земель
 70
     1
  0
ATTRIB
  8
p
 10
1244784.91
 20
409679.32
 30
0.0
 40
0.2
  1
Для размещения иных объектов промышленности, энергетики, транспорта, связи, радиовещания, телевидения, информатики, обеспечения космической деятельности, обороны, безопасности и иного специального назначения
  2
Вид разрешенного использования по классификатору
 70
     1
  0
ATTRIB
  8
p
 10
1244784.91
 20
409679.32
 30
0.0
 40
0.2
  1
Для содержания и эксплуатации семи опор линий электропередач ЛЭП-220 кВ &quot;Чебоксарская ГЭС-Чигашево&quot;
  2
Вид использования по документу
 70
     1
  0
ATTRIB
  8
p
 10
1244784.91
 20
409679.32
 30
0.0
 40
0.2
  1
21:02:000000:6
  2
Кадастровый номер ЕЗП
 70
     1
  0
ATTRIB
  8
p
 10
1244784.91
 20
409679.32
 30
0.0
 40
0.2
  1
133416.04
  2
Кадастровая стоимость
 70
     1
  0
ATTRIB
  8
p
 10
1244784.91
 20
409679.32
 30
0.0
 40
0.2
  1
Ранее учтенный
  2
Статус записи о ЗУ по справочнику
 70
     1
  0
ATTRIB
  8
p
 10
1244784.91
 20
409679.32
 30
0.0
 40
0.2
  1
29.01.2004
  2
Дата постановки на учет
 70
     1
  0
SEQEND
  8
p
 62
     7
  0
INSERT
  2
b1
  8
b
 62
     7
 10
0.0
 20
0.0
 30
0.0
 66
     1
  0
ATTRIB
  8
b
 10
1244766.06
 20
411007.44
 30
0.0
 40
0.2
  1
21:02:010103
  2
Кадастровый номер, обозначение, учетный номер объекта
 70
     1
  0
ATTRIB
  8
b
 10
1244766.06
 20
411007.44
 30
0.0
 40
0.2
  1
Кадастровый квартал
  2
Тип объекта
 70
     1
  0
SEQEND
  8
b
 62
     7
  0
ENDSEC
  0
EOF
